# xmcd
#
# Track frame offsets:
#	150
#	13211
#	28150
#	43058
#	56740
#	67005
#	76206
#	90276
#	102347
#	114256
#	129227
#	141363
#
# Disc length: 2065 seconds
#
# Revision: 1
# Processed by: cddbd v1.5.2PL0 Copyright (c) Steve Scherf et al.
# Submitted via: audiograbber 1.83.01
#
DISCID=9e080f0c
DTITLE=Hubert Klausner - Für Akkordeonfreunde 1
DYEAR=1900
DGENRE=
TTITLE0=Polkafest
TTITLE1=Abends am See
TTITLE2=Walderwirt Boarischer
TTITLE3=Walzer für Gitta
TTITLE4=Schwarzensteiner Polka
TTITLE5=Kirchtags Walzer
TTITLE6=Goldener Herbst
TTITLE7=Schwarz auf Weiss
TTITLE8=Im Zirmstüberl
TTITLE9=Akkordeon Polka
TTITLE10=Harmonika Rallye
TTITLE11=Durchs Alpenland
EXTD=
EXTT0=
EXTT1=
EXTT2=
EXTT3=
EXTT4=
EXTT5=
EXTT6=
EXTT7=
EXTT8=
EXTT9=
EXTT10=
EXTT11=
PLAYORDER=
